<svg xmlns="http://www.w3.org/2000/svg" xmlns:xlink="http://www.w3.org/1999/xlink" width="20" height="20" viewBox="0 0 20 20"><defs><clipPath id="a"><rect width="20" height="20" transform="translate(180)" fill="none" stroke="#000" stroke-linecap="round" stroke-linejoin="round" stroke-width="1.3"/></clipPath></defs><g transform="translate(-180)" clip-path="url(#a)"><path d="M14,.65H0A.65.65,0,0,1-.65,0,.65.65,0,0,1,0-.65H14a.65.65,0,0,1,.65.65A.65.65,0,0,1,14,.65Z" transform="translate(183 16)"/><path d="M0,8.65A.65.65,0,0,1-.65,8V0A.65.65,0,0,1,0-.65.65.65,0,0,1,.65,0V8A.65.65,0,0,1,0,8.65Z" transform="translate(190 4)"/><path d="M0,4.65A.65.65,0,0,1-.65,4V0A.65.65,0,0,1,0-.65.65.65,0,0,1,.65,0V4A.65.65,0,0,1,0,4.65Z" transform="translate(186 8)"/><path d="M0,6.65A.65.65,0,0,1-.65,6V0A.65.65,0,0,1,0-.65.65.65,0,0,1,.65,0V6A.65.65,0,0,1,0,6.65Z" transform="translate(194 6)"/></g></svg>