<svg xmlns="http://www.w3.org/2000/svg" xmlns:xlink="http://www.w3.org/1999/xlink" width="20" height="20" viewBox="0 0 20 20"><defs><style>.a{fill:#fff;stroke:#707070;}.b{clip-path:url(#a);}.c{fill:url(#b);}.d{fill:#666;}</style><clipPath id="a"><rect class="a" width="20" height="20" transform="translate(-17497 -16545)"/></clipPath><linearGradient id="b" x1="0.5" x2="0.5" y2="1" gradientUnits="objectBoundingBox"><stop offset="0" stop-color="#fff"/><stop offset="1" stop-color="#ddd"/></linearGradient></defs><g class="b" transform="translate(17497 16545)"><rect class="c" width="14" height="16" rx="1" transform="translate(-17494 -16543)"/><path class="d" d="M1,1V15H13V1H1M1,0H13a1,1,0,0,1,1,1V15a1,1,0,0,1-1,1H1a1,1,0,0,1-1-1V1A1,1,0,0,1,1,0Z" transform="translate(-17494 -16543)"/><rect class="d" width="8" height="1" rx="0.5" transform="translate(-17491 -16540)"/><rect class="d" width="8" height="1" rx="0.5" transform="translate(-17491 -16537)"/><rect class="d" width="8" height="1" rx="0.5" transform="translate(-17491 -16534)"/><rect class="d" width="8" height="1" rx="0.5" transform="translate(-17491 -16531)"/></g></svg>