<svg xmlns="http://www.w3.org/2000/svg" xmlns:xlink="http://www.w3.org/1999/xlink" width="20" height="20" viewBox="0 0 20 20"><defs><clipPath id="a"><rect width="20" height="20" transform="translate(-17512 -15682)"/></clipPath></defs><g transform="translate(17512 15682)" clip-path="url(#a)"><g transform="translate(0.923 0.923)"><path d="M3.631,9.078H1a1,1,0,0,1-1-1V1A1,1,0,0,1,1,0H17.153a1,1,0,0,1,1,1V8.077a1,1,0,0,1-1,1H14.522V5.446H3.631V9.076Zm9.985-7.262v.907h2.722V1.815Zm-4.539,0v.907h3.631V1.815Z" transform="translate(-17512 -15677.462)"/><path d="M1,1V8H11V1H1M0,0H12V8a1,1,0,0,1-1,1H1A1,1,0,0,1,0,8Z" transform="translate(-17508.924 -15672.924)"/><path d="M1,1V4H9V1H1M1,0H9a1,1,0,0,1,1,1V5H0V1A1,1,0,0,1,1,0Z" transform="translate(-17507.924 -15681.924)"/><rect width="8" height="1" transform="translate(-17506.924 -15668.924)"/><path d="M0,0H8V1H0Z" transform="translate(-17506.924 -15668.924)"/><rect width="8" height="1" transform="translate(-17506.924 -15666.924)"/><path d="M0,0H8V1H0Z" transform="translate(-17506.924 -15666.924)"/><rect width="8" height="1" transform="translate(-17506.924 -15670.924)"/><path d="M0,0H8V1H0Z" transform="translate(-17506.924 -15670.924)"/></g></g></svg>